<?xml version="1.0" standalone="no"?>
<!DOCTYPE svg PUBLIC "-//W3C//DTD SVG 20010904//EN"
 "http://www.w3.org/TR/2001/REC-SVG-20010904/DTD/svg10.dtd">
<svg version="1.0" xmlns="http://www.w3.org/2000/svg"
 width="256.000000pt" height="256.000000pt" viewBox="0 0 256.000000 256.000000"
 preserveAspectRatio="xMidYMid meet">
<metadata>
Created by potrace 1.11, written by Peter Selinger 2001-2013
</metadata>
<g transform="translate(0.000000,256.000000) scale(0.100000,-0.100000)"
fill="#000000" stroke="none">
<path d="M1430 2520 c0 -5 5 -10 10 -10 6 0 10 5 10 10 0 6 -4 10 -10 10 -5 0
-10 -4 -10 -10z"/>
<path d="M186 2501 c-13 -14 -16 -28 -10 -56 8 -45 37 -59 155 -80 43 -8 92
-21 109 -30 17 -9 57 -20 88 -26 36 -5 73 -20 100 -39 49 -35 50 -35 80 -14
19 13 20 18 10 37 -14 25 -11 59 4 68 6 4 8 15 4 24 -5 13 -13 15 -34 10 -36
-9 -37 -10 -25 -49 12 -38 4 -46 -42 -46 -20 0 -65 44 -65 64 0 3 18 11 40 17
38 12 39 13 24 31 -21 22 -70 24 -82 3 -7 -14 -13 -14 -51 0 -24 8 -52 15 -62
15 -9 0 -24 6 -31 13 -36 35 -80 59 -100 54 -12 -3 -34 1 -49 9 -36 18 -42 18
-63 -5z"/>
<path d="M60 2446 c0 -41 32 -59 58 -33 14 14 13 18 -2 41 -9 14 -25 26 -36
26 -16 0 -20 -7 -20 -34z"/>
<path d="M1645 2450 c-3 -5 -4 -14 0 -20 8 -13 35 -1 35 16 0 16 -26 19 -35 4z"/>
<path d="M1298 2430 c4 -12 11 -21 15 -21 4 1 12 1 17 1 6 0 10 7 10 15 0 8
-4 15 -9 15 -5 0 -17 3 -25 6 -13 5 -15 2 -8 -16z"/>
<path d="M1465 2430 c-10 -16 4 -28 38 -34 19 -3 30 0 34 10 7 19 5 20 -34 28
-19 5 -34 3 -38 -4z"/>
<path d="M1185 2302 c-61 -3 -270 -29 -305 -37 -14 -4 -42 -9 -63 -12 -21 -3
-40 -10 -43 -14 -3 -5 -17 -9 -32 -10 -19 0 -12 -4 23 -14 28 -7 52 -12 54 -9
2 2 17 -7 32 -20 20 -17 36 -22 51 -18 21 5 20 6 -9 14 -51 13 -39 26 27 30
36 2 60 -1 60 -7 0 -5 4 -4 9 4 5 7 14 10 20 7 6 -4 11 0 11 8 0 9 3 15 8 14
4 -1 23 6 42 17 32 17 56 19 320 17 220 -2 288 -6 300 -16 8 -8 58 -21 110
-30 52 -9 104 -21 115 -26 44 -21 152 -53 190 -57 38 -4 39 -3 20 12 -89 72
-318 127 -610 145 -148 10 -194 10 -330 2z"/>
<path d="M2481 2249 c-51 -18 -108 -34 -211 -60 -42 -10 -44 -12 -25 -26 23
-17 96 -51 137 -63 18 -6 28 -4 31 3 2 8 16 6 45 -7 32 -15 45 -16 56 -7 7 6
21 9 30 5 14 -5 16 5 16 85 0 102 3 100 -79 70z"/>
<path d="M1675 2231 c-3 -5 -1 -12 5 -16 5 -3 10 1 10 9 0 18 -6 21 -15 7z"/>
<path d="M1106 2214 c-9 -8 -16 -18 -16 -20 0 -7 38 15 45 26 10 16 -12 12
-29 -6z"/>
<path d="M1340 2208 c-8 -13 -18 -31 -22 -40 -8 -19 -38 -14 -38 5 0 6 -12 -1
-27 -15 -54 -51 -133 -69 -133 -31 0 25 -32 42 -77 43 -41 0 -42 0 -33 -30 9
-31 -5 -53 -20 -31 -5 9 -10 8 -20 -4 -10 -12 -16 -13 -27 -3 -8 6 -32 12 -54
13 -30 2 -42 -2 -50 -17 -9 -17 -8 -18 10 -9 11 6 32 11 47 11 21 0 25 -4 21
-19 -6 -23 12 -23 95 4 51 16 65 17 125 6 98 -17 146 -20 161 -8 11 9 9 14
-10 30 -20 16 -20 18 -3 11 11 -4 41 -8 67 -10 41 -2 51 1 87 35 23 21 41 40
41 42 0 2 -19 5 -43 5 -73 3 -75 4 -79 19 -2 12 -6 10 -18 -7z m63 -58 c-3
-11 -9 -20 -14 -20 -10 0 -12 24 -2 33 13 13 21 7 16 -13z"/>
<path d="M1564 2206 c-4 -10 -15 -13 -40 -9 -22 4 -34 2 -34 -6 0 -10 11 -12
68 -15 9 -1 17 4 17 9 0 6 4 16 8 23 5 7 4 12 -3 12 -6 0 -13 -6 -16 -14z"/>
<path d="M595 2187 c-62 -27 -94 -46 -77 -47 21 0 13 -14 -15 -27 -36 -17 -50
-16 -62 5 -10 16 -12 16 -24 1 -7 -9 -36 -29 -65 -44 -76 -40 -201 -152 -229
-205 -29 -56 -31 -168 -3 -197 9 -10 14 -25 12 -32 -3 -8 0 -11 7 -7 6 4 15
-2 20 -16 8 -21 68 -91 74 -86 1 1 13 -8 27 -19 14 -12 34 -29 45 -38 l20 -15
-20 7 c-11 3 -17 3 -13 -1 6 -7 30 -14 56 -15 7 -1 11 -5 8 -10 -4 -5 4 -7 16
-3 13 3 19 1 15 -6 -4 -5 5 -20 20 -31 28 -20 28 -20 5 -21 -13 0 -58 16 -100
37 -42 20 -94 44 -114 54 -42 20 -46 19 -22 -5 8 -9 11 -16 6 -16 -5 0 -15 7
-22 15 -7 8 -15 15 -19 15 -12 0 -9 -55 4 -70 17 -19 28 -107 15 -115 -6 -3
-10 -12 -10 -18 0 -8 3 -7 9 2 7 11 11 9 20 -8 7 -12 10 -25 7 -30 -8 -12 47
-121 77 -153 50 -54 39 -70 -212 -323 -15 -14 -18 -24 -11 -35 9 -13 13 -11
30 10 11 14 20 19 20 11 0 -7 -11 -27 -26 -43 -14 -17 -23 -37 -20 -44 3 -8 0
-11 -8 -8 -18 7 -28 -10 -32 -50 -1 -17 0 -25 3 -18 2 6 11 12 19 12 8 0 14 5
14 11 0 6 14 25 31 42 27 26 31 28 25 10 -5 -16 -2 -25 14 -33 16 -9 18 -15
10 -29 -7 -15 -6 -20 7 -25 25 -10 39 10 22 30 -8 9 -14 29 -14 44 0 21 4 26
17 22 10 -2 18 1 18 7 0 6 11 21 25 33 14 12 23 28 21 35 -3 7 1 10 10 6 10
-4 17 2 21 16 3 11 12 21 19 21 8 0 14 4 14 9 0 12 47 61 60 61 5 0 10 8 10
18 0 9 11 22 25 29 20 9 25 8 25 -3 0 -8 3 -14 8 -14 4 0 14 -4 22 -10 11 -7
6 -17 -30 -53 -48 -47 -143 -154 -148 -167 -5 -13 31 -21 39 -8 4 6 6 15 3 19
-2 4 6 9 17 12 15 4 20 11 16 21 -4 10 -1 16 9 16 19 0 64 40 64 58 0 6 7 12
15 12 8 0 15 4 15 10 0 11 42 52 48 46 6 -6 -11 -25 -95 -114 -40 -41 -73 -79
-73 -84 0 -5 7 -11 16 -15 16 -6 37 15 28 29 -3 4 4 8 15 8 12 0 21 7 21 15 0
8 5 15 11 15 12 0 52 39 67 66 6 10 12 13 16 6 3 -6 -21 -38 -54 -73 -33 -34
-60 -66 -60 -70 0 -5 -7 -9 -15 -9 -8 0 -15 -7 -15 -15 0 -8 9 -15 20 -15 11
0 20 7 20 15 0 8 5 15 11 15 7 0 26 16 45 35 18 19 37 35 43 35 6 0 11 9 11
20 0 20 14 27 24 12 4 -8 -26 -42 -96 -107 -10 -9 -18 -21 -18 -26 0 -15 40
-10 46 6 4 8 12 15 20 15 8 0 14 9 14 21 0 14 5 19 14 16 9 -4 17 2 21 14 4
10 11 19 16 19 18 0 9 -19 -26 -54 -38 -39 -44 -56 -20 -56 8 0 15 7 15 15 0
8 7 15 15 15 13 0 14 -4 5 -20 -6 -11 -15 -20 -20 -20 -6 0 -10 -4 -10 -10 0
-5 9 -10 20 -10 11 0 20 7 20 15 0 8 5 15 10 15 16 0 12 -30 -5 -36 -8 -4 -15
-12 -15 -19 0 -7 7 -15 15 -19 10 -4 15 1 15 14 0 11 7 20 15 20 21 0 19 -16
-6 -39 -12 -11 -18 -24 -14 -30 10 -17 23 -13 30 9 8 27 23 25 27 -2 4 -29 34
-36 42 -10 4 11 16 22 27 25 20 5 20 5 3 -15 -18 -19 -18 -20 4 -38 12 -10 22
-27 22 -38 0 -11 7 -25 15 -32 16 -13 29 -4 56 43 13 23 29 22 29 -2 0 -27 20
-38 32 -17 14 24 31 20 22 -6 -4 -13 -10 -25 -14 -28 -15 -11 -18 -39 -5 -50
11 -9 16 -6 26 12 7 13 12 27 11 31 -1 5 2 6 8 2 5 -3 10 -19 10 -34 0 -44 12
-44 51 0 36 40 37 41 48 20 7 -11 8 -21 3 -21 -12 0 -34 -51 -26 -59 3 -3 11
2 18 12 12 21 94 107 101 107 3 0 5 -7 5 -15 0 -8 -4 -15 -10 -15 -5 0 -7 -6
-4 -13 2 -7 -7 -26 -21 -41 -14 -15 -25 -31 -25 -37 0 -14 18 -11 27 5 8 14
65 83 96 117 18 20 47 26 47 9 0 -5 -4 -10 -9 -10 -5 0 -13 -9 -16 -21 -4 -12
-16 -30 -26 -40 -22 -22 -25 -39 -6 -39 8 0 19 11 25 25 6 14 16 25 22 25 5 0
10 5 10 11 0 14 76 89 90 89 5 0 10 -4 10 -10 0 -5 -4 -10 -9 -10 -5 0 -12
-11 -15 -25 -4 -14 -11 -25 -16 -25 -6 0 -15 -10 -20 -22 -5 -13 -17 -33 -26
-46 -15 -20 -15 -22 0 -22 9 0 16 4 16 10 0 5 15 25 34 45 19 19 45 52 57 73
27 44 47 61 72 62 16 0 -5 -35 -73 -117 -6 -7 -10 -17 -10 -22 0 -6 -15 -26
-34 -46 -34 -34 -76 -47 -76 -22 0 9 -2 9 -8 0 -8 -13 -82 -47 -82 -37 0 3 5
15 11 26 21 38 -7 42 -29 3 -19 -31 -67 -63 -79 -51 -3 2 1 14 7 26 10 18 9
21 -2 18 -7 -3 -14 -14 -16 -26 -2 -13 -11 -22 -20 -22 -9 0 -26 -7 -36 -15
-28 -21 -36 -19 -36 13 -1 23 -2 25 -11 9 -5 -9 -7 -22 -4 -27 3 -6 0 -10 -7
-10 -8 0 -22 -6 -32 -13 -33 -24 68 -19 184 8 184 44 253 56 347 57 78 1 96
-2 128 -22 44 -27 41 -33 -11 -19 -60 17 -234 6 -246 -15 -7 -12 -18 -15 -47
-10 -33 5 -40 3 -54 -20 -10 -14 -24 -26 -31 -26 -13 0 -31 -79 -20 -89 7 -7
41 33 48 57 4 12 11 22 16 22 13 0 22 -37 15 -60 -3 -11 -3 -20 0 -20 9 0 35
27 35 35 0 4 12 21 27 39 l26 31 -6 -47 c-4 -27 -3 -48 1 -48 4 1 20 21 35 45
16 25 32 45 37 45 18 0 22 -41 6 -59 -9 -10 -16 -23 -16 -30 0 -19 24 -7 28
14 5 23 58 75 77 75 11 0 13 -8 8 -32 -4 -22 -3 -29 5 -24 7 4 12 14 12 22 0
8 6 14 14 14 8 0 17 7 20 16 5 13 9 14 21 4 17 -14 20 -40 5 -40 -5 0 -10 -8
-10 -17 0 -14 5 -12 24 10 14 16 27 34 29 40 5 16 37 -10 37 -29 0 -8 7 -14
15 -14 8 0 15 7 15 15 0 24 20 17 30 -10 10 -26 24 -32 35 -15 10 16 23 12 30
-11 5 -16 12 -19 31 -15 14 4 30 3 37 -1 20 -12 101 -11 133 2 17 7 43 10 58
8 14 -3 33 0 41 7 13 11 18 10 30 -6 13 -18 14 -18 21 -1 5 15 14 18 35 13 28
-5 41 8 17 17 -8 2 -9 8 -4 13 5 5 11 4 13 -3 6 -18 23 -16 45 4 10 9 21 13
25 9 4 -4 1 -11 -7 -16 -8 -5 -12 -12 -8 -15 6 -7 118 98 118 110 0 4 12 24
27 44 32 41 50 69 60 91 4 8 10 17 13 20 13 9 60 100 52 100 -4 0 -33 -31 -62
-70 -30 -38 -58 -70 -62 -70 -5 0 -8 -7 -8 -15 0 -7 -6 -18 -13 -22 -8 -4 -17
-17 -21 -28 -6 -16 -9 -17 -16 -5 -8 13 -13 13 -37 -2 -15 -9 -32 -25 -38 -35
-5 -10 -11 -20 -13 -23 -2 -2 -7 2 -12 9 -7 12 -15 10 -44 -7 -20 -12 -36 -17
-36 -13 0 5 21 21 47 37 202 116 298 226 310 352 5 61 20 112 33 112 5 0 11
18 15 40 4 22 10 42 15 45 5 3 11 23 15 45 4 22 11 40 16 40 5 0 9 19 9 43 l0
42 -14 -30 c-36 -79 -46 -104 -46 -114 0 -6 -9 -26 -19 -45 -11 -19 -17 -37
-14 -40 3 -3 0 -13 -8 -22 -12 -14 -14 -14 -26 2 -10 14 -10 20 0 33 7 9 24
50 37 91 12 41 26 80 30 85 4 6 10 24 13 41 3 18 9 44 13 59 5 21 4 26 -5 20
-7 -4 -10 -9 -7 -12 2 -3 -4 -20 -15 -39 -10 -19 -19 -39 -19 -45 0 -6 -6 -25
-14 -42 -7 -18 -21 -53 -30 -78 -9 -25 -23 -54 -30 -65 -14 -19 -15 -19 -22 0
-4 10 -2 26 4 36 6 10 14 34 17 54 4 20 11 39 16 42 5 3 9 13 9 22 0 9 6 28
13 42 19 36 29 90 17 90 -6 0 -10 -7 -10 -15 0 -8 -4 -15 -9 -15 -5 0 -11 -12
-14 -27 -3 -16 -14 -46 -23 -68 -10 -22 -18 -42 -18 -45 -2 -17 -41 -100 -47
-100 -14 0 -21 21 -11 33 5 7 13 28 17 47 4 19 11 40 15 45 13 18 40 113 39
137 -1 17 -3 18 -6 6 -2 -10 -9 -18 -14 -18 -5 0 -9 -9 -9 -19 0 -11 -4 -22
-9 -26 -5 -3 -13 -20 -17 -37 -3 -18 -10 -39 -15 -48 -4 -8 -16 -34 -25 -57
-20 -49 -48 -60 -38 -15 4 15 11 31 15 37 5 5 9 16 9 25 0 8 6 27 14 42 8 15
17 42 21 60 4 18 11 38 16 43 4 6 4 17 -1 25 -7 11 -11 7 -20 -16 -7 -16 -21
-46 -31 -67 -11 -22 -19 -43 -19 -49 0 -10 -23 -67 -41 -100 -12 -24 -11 -28
4 -28 23 0 48 -25 42 -41 -5 -14 -75 -48 -135 -64 -14 -4 -70 -37 -125 -74
-55 -36 -107 -69 -115 -74 -8 -4 -27 -15 -41 -25 -14 -9 -47 -30 -73 -47 -27
-16 -61 -39 -75 -51 -52 -41 -161 -79 -161 -56 0 20 99 157 144 201 25 24 46
49 46 56 0 7 7 15 15 19 8 3 15 12 15 21 0 8 5 15 10 15 6 0 10 -7 10 -15 0
-8 3 -15 8 -15 15 0 52 31 52 44 0 8 7 16 15 20 8 3 15 10 15 16 0 11 2 14 44
65 20 23 25 26 26 13 0 -10 -4 -18 -10 -18 -5 0 -10 -9 -10 -20 0 -11 -4 -20
-10 -20 -5 0 -10 -9 -10 -20 0 -17 3 -18 25 -8 14 6 25 19 25 28 0 10 7 23 15
30 8 7 12 16 9 21 -3 5 1 12 10 15 8 3 13 11 10 18 -3 7 6 21 20 30 15 9 26
12 26 6 0 -5 -4 -10 -9 -10 -5 0 -11 -14 -15 -32 -3 -17 -14 -40 -23 -50 -21
-24 -10 -34 22 -20 15 7 25 20 25 32 0 11 5 20 10 20 6 0 10 6 10 12 0 26 35
96 53 108 11 6 17 8 15 3 -25 -52 -42 -96 -39 -107 1 -5 -6 -18 -16 -29 -18
-20 -17 -20 7 -14 14 4 28 7 31 7 4 0 10 15 14 33 4 17 9 34 10 37 1 3 5 14 9
25 5 11 14 34 22 52 8 17 14 37 14 45 0 7 12 21 25 31 33 23 33 7 0 -57 -13
-27 -27 -64 -31 -82 -3 -19 -10 -34 -15 -34 -5 0 -9 -9 -9 -20 0 -11 7 -20 15
-20 8 0 15 7 15 15 0 8 4 15 9 15 5 0 12 16 16 36 3 20 10 44 15 53 10 20 25
55 45 105 12 31 13 42 3 54 -8 10 -9 13 -2 9 7 -4 14 2 18 16 9 33 8 37 -10
37 -12 0 -11 6 7 32 l23 31 -33 -6 c-36 -8 -91 15 -91 37 0 37 -114 106 -174
106 -9 0 -16 5 -16 10 0 6 5 10 12 10 6 0 9 2 7 4 -2 2 -29 -2 -59 -10 -133
-35 -499 -79 -516 -61 -4 4 4 7 18 7 36 0 256 38 296 51 18 6 39 8 47 5 16 -6
127 10 153 23 9 4 32 15 50 24 19 9 43 17 55 17 18 0 19 2 7 10 -16 10 -15 10
33 14 6 1 14 3 17 7 10 11 77 38 122 49 26 7 46 16 43 20 -3 5 32 33 77 63 46
30 109 82 141 115 46 50 57 67 57 94 l-1 33 -14 -26 c-24 -44 -127 -149 -190
-194 -65 -46 -156 -95 -177 -95 -7 0 0 7 15 15 30 16 128 93 187 147 20 18 45
38 55 44 29 17 10 29 -28 18 -36 -10 -87 -7 -87 6 0 5 26 9 57 9 41 0 59 4 65
15 5 9 15 16 22 16 12 0 26 41 26 75 0 8 -13 13 -35 13 -19 0 -35 -4 -35 -9 0
-18 -75 4 -95 28 -11 12 -24 23 -29 23 -16 0 -56 -51 -56 -71 0 -11 -4 -17
-10 -14 -6 3 -10 -5 -10 -18 0 -28 -32 -42 -61 -26 -15 8 -17 14 -8 37 6 15
18 35 26 44 10 12 12 18 4 18 -6 0 -14 -7 -17 -15 -8 -21 -21 -19 -27 5 -3 11
-1 20 4 20 5 0 9 5 9 12 0 9 -3 9 -12 0 -7 -7 -23 -12 -38 -12 l-25 0 29 15
c30 16 71 20 63 8 -4 -7 67 -8 83 -2 3 1 9 1 14 0 4 -1 14 4 22 10 8 7 27 9
45 5 24 -4 35 -1 56 20 14 14 31 23 39 20 8 -3 14 -1 14 4 0 16 -17 20 -49 10
-19 -5 -31 -5 -31 1 0 5 10 9 22 9 40 0 7 15 -37 16 -24 1 -60 5 -80 8 -20 4
-51 2 -71 -4 -27 -9 -38 -9 -49 0 -14 11 -19 7 -16 -12 2 -13 -22 -9 -43 7
-10 8 -15 19 -11 26 5 7 3 10 -6 7 -8 -3 -29 2 -48 9 -18 8 -36 12 -39 9 -6
-7 -42 33 -42 47 0 5 8 0 18 -11 9 -12 24 -22 32 -23 31 -3 51 1 45 11 -8 13
16 37 51 50 15 6 24 13 21 16 -2 3 -41 7 -86 10 -66 3 -81 1 -81 -10 0 -8 -4
-17 -9 -20 -5 -3 -8 6 -8 20 0 37 -12 42 -34 15 -14 -17 -17 -27 -10 -34 7 -7
-1 -15 -26 -23 -34 -12 -38 -11 -59 11 -18 19 -23 21 -28 10 -6 -16 -53 -20
-74 -7 -7 5 -10 16 -6 26 6 15 1 16 -34 12 -35 -4 -39 -3 -35 14 4 16 13 19
49 18 30 -2 49 3 61 15 16 16 16 19 3 27 -11 7 -19 5 -27 -7 -10 -12 -23 -15
-63 -10 -47 6 -51 5 -45 -13 6 -19 -8 -26 -38 -21 -4 1 -17 -4 -29 -10 -17 -9
-23 -8 -30 5 -6 10 -22 16 -43 16 -36 0 -47 -13 -20 -24 8 -3 15 -12 15 -21 0
-12 -10 -14 -57 -10 l-58 5 49 -24 c49 -24 69 -24 95 2 8 7 17 10 20 5 10 -13
28 -14 86 -5 30 5 55 5 55 0 0 -4 -9 -8 -20 -8 -11 0 -20 -4 -20 -10 0 -5 -12
-10 -27 -10 -40 0 -51 -11 -55 -50 l-3 -35 -26 27 c-20 21 -36 28 -75 30 -27
1 -55 7 -63 12 -7 6 -23 10 -35 11 -11 0 -20 6 -18 13 3 15 -14 16 -23 2 -4
-6 -15 -8 -25 -5 -10 3 -22 0 -26 -6 -4 -8 -3 -9 4 -5 16 10 15 -2 0 -18 -28
-27 -66 -46 -82 -40 -9 3 -13 10 -10 16 3 5 13 7 21 4 8 -3 12 -2 9 3 -3 5 1
14 9 21 16 13 21 40 8 40 -16 -1 -140 -19 -197 -29 -58 -10 -87 -2 -80 24 5
15 -42 46 -60 39 -21 -8 -27 -31 -10 -38 8 -3 14 1 14 9 0 27 18 16 25 -15 6
-30 27 -42 75 -46 76 -6 153 -25 182 -45 21 -16 33 -19 36 -11 4 14 42 16 42
2 0 -5 7 -7 15 -4 10 4 15 0 14 -12 0 -11 -3 -14 -5 -7 -3 7 -12 9 -20 6 -7
-3 -11 -10 -7 -17 3 -6 1 -6 -8 2 -16 14 -33 16 -24 2 3 -6 -4 -10 -17 -9 -13
0 -17 3 -10 6 20 8 3 23 -25 23 -15 0 -38 -10 -51 -22 -19 -17 -24 -19 -19 -6
8 23 -1 28 -31 17 -21 -8 -29 -7 -39 7 -7 10 -15 15 -18 13 -8 -8 45 -80 55
-74 5 3 11 1 15 -5 10 -16 21 -12 33 15 12 27 42 34 42 10 0 -8 -9 -19 -20
-25 -22 -12 -27 -36 -7 -43 6 -2 9 -7 5 -11 -8 -10 -48 16 -48 31 0 19 -35 16
-80 -7 -22 -11 -51 -20 -66 -20 -21 0 -25 -4 -21 -20 5 -21 -18 -41 -40 -33
-16 6 -28 -18 -13 -27 9 -5 9 -9 1 -14 -13 -8 -26 18 -16 34 4 6 -4 10 -20 10
-24 0 -25 2 -11 15 8 8 21 15 30 15 8 0 18 5 21 11 4 6 13 8 20 5 8 -3 17 4
21 16 4 14 -1 28 -19 46 l-25 25 -21 -34 c-12 -19 -22 -38 -24 -44 -2 -6 -11
-4 -21 4 -15 13 -15 15 1 33 13 15 14 21 5 27 -12 7 -75 6 -113 -3 -9 -2 -22
5 -30 15 -7 11 -24 19 -37 19 -19 0 -22 4 -17 20 9 28 -5 25 -45 -9 l-35 -30
54 6 c43 5 53 3 49 -8 -6 -17 -91 -34 -96 -19 -2 6 -18 -3 -35 -20 -39 -38
-66 -40 -59 -5 4 25 -3 30 -32 19 -9 -3 -13 -10 -10 -15 3 -6 0 -16 -6 -24 -9
-11 -9 -15 -1 -15 6 0 11 -5 11 -11 0 -6 -8 -8 -19 -4 -11 3 -22 1 -26 -5 -11
-17 -23 -11 -18 10 3 12 -1 22 -10 26 -18 7 -16 35 4 43 8 3 26 14 41 24 27
18 28 18 55 -1 22 -15 34 -17 56 -9 l29 9 -34 21 c-33 21 -38 23 -58 26 -5 0
-10 6 -10 12 0 5 8 9 18 8 9 -2 26 2 37 8 11 6 22 11 25 11 31 -3 101 49 112
84 4 10 8 10 22 -1 15 -13 112 -61 122 -61 2 0 4 9 4 21 0 15 -5 19 -18 14
-11 -3 -34 1 -53 9 -19 9 -27 15 -19 16 18 0 56 40 39 40 -6 0 -19 10 -30 23
-19 23 -25 47 -11 47 5 0 18 14 30 30 27 36 17 37 -53 7z m-49 -131 c-13 -20
-26 -41 -28 -47 -2 -6 -21 -6 -55 2 -57 13 -88 7 -79 -17 5 -12 -1 -15 -26
-12 -45 4 -59 32 -30 60 20 20 33 23 101 23 43 0 84 5 92 11 15 12 42 23 47
19 2 -2 -8 -19 -22 -39z m1121 -28 c-3 -8 -6 -5 -6 6 -1 11 2 17 5 13 3 -3 4
-12 1 -19z m83 -31 c25 0 39 -2 32 -5 -6 -2 -10 -8 -7 -13 4 -5 0 -6 -7 -4 -8
3 -21 -8 -31 -25 -10 -16 -22 -30 -27 -30 -5 0 -7 -7 -4 -15 7 -18 -7 -20 -24
-3 -20 20 -14 37 21 58 l32 20 -35 -2 c-20 -1 -41 2 -48 6 -20 12 -4 25 26 19
15 -3 47 -6 72 -6z m167 -29 c-3 -7 -5 -2 -5 12 0 14 2 19 5 13 2 -7 2 -19 0
-25z m-431 -35 c26 -19 49 -27 82 -28 26 -1 61 -8 77 -15 17 -7 58 -12 96 -11
90 3 147 -13 159 -45 14 -37 13 -41 -19 -60 -16 -9 -27 -23 -25 -29 7 -17 -25
-40 -57 -40 -35 0 -21 20 20 28 24 5 28 10 24 27 -3 11 -1 20 4 20 5 0 18 7
29 15 16 13 16 14 2 9 -12 -4 -18 -1 -18 7 0 8 -10 -1 -21 -18 -23 -36 -43
-42 -53 -17 -3 8 -10 13 -14 10 -5 -3 -18 1 -28 10 -18 13 -16 14 21 9 24 -3
35 -2 27 4 -8 4 -12 17 -10 27 2 13 -2 18 -12 15 -8 -2 -26 -4 -40 -5 -14 -1
-35 -11 -47 -23 -13 -13 -33 -23 -45 -23 -17 0 -19 -3 -10 -12 6 -6 25 -11 41
-10 17 0 33 -4 36 -9 4 -5 11 -9 16 -9 6 0 7 5 4 10 -3 6 0 10 7 10 18 0 57
-29 41 -30 -6 0 -15 5 -18 10 -4 6 -12 7 -18 3 -7 -4 -30 -9 -52 -10 -22 -2
-44 -9 -50 -15 -5 -7 -32 -14 -60 -15 -27 -1 -62 -3 -78 -4 -40 -3 -44 8 -15
38 20 20 37 26 71 27 25 1 49 5 53 9 5 4 1 5 -9 1 -10 -3 -17 -1 -17 5 0 6 -9
11 -20 11 -11 0 -23 8 -26 18 -23 66 -26 70 -57 58 -23 -9 -31 -8 -40 4 -13
16 -47 15 -47 -1 0 -5 10 -13 23 -18 13 -5 29 -16 36 -25 27 -32 -18 -17 -56
19 -37 35 -63 45 -63 24 0 -8 -5 -8 -15 1 -12 10 -15 9 -15 -6 -1 -11 -9 -35
-20 -54 l-19 -35 -1 38 c0 24 8 50 22 70 13 18 24 34 26 37 2 2 7 -2 12 -10 8
-13 10 -12 10 3 0 10 3 16 8 14 4 -3 16 -1 27 4 41 16 86 9 121 -18z m534 23
c0 -2 -8 -10 -17 -17 -16 -13 -17 -12 -4 4 13 16 21 21 21 13z m-1706 -17 c-3
-6 -15 -9 -25 -6 -14 4 -19 0 -19 -13 0 -11 -5 -22 -10 -25 -6 -4 -8 -11 -5
-16 12 -18 -22 -9 -40 11 -20 23 -21 22 20 43 35 19 90 23 79 6z m1636 -38
c-6 -12 -8 -25 -6 -30 3 -5 -1 -12 -10 -15 -8 -3 -12 -2 -9 4 3 6 1 10 -6 10
-8 0 -7 5 2 17 12 15 12 16 -3 10 -11 -4 -17 -2 -15 6 2 10 46 27 55 21 2 -1
-1 -12 -8 -23z m185 -11 c5 -9 -9 -14 -18 -7 -2 1 -10 -3 -18 -9 -20 -14 -143
-19 -135 -5 4 6 19 11 34 12 15 0 36 4 47 9 28 12 83 12 90 0z m115 -20 c0 -5
-4 -10 -9 -10 -6 0 -13 5 -16 10 -3 6 1 10 9 10 9 0 16 -4 16 -10z m-1757 -55
c-8 -22 -22 -18 -16 5 3 11 9 17 14 15 4 -3 6 -12 2 -20z m57 11 c0 -21 -11
-46 -20 -46 -5 0 -8 14 -8 30 1 30 28 45 28 16z m73 5 c5 -1 5 -5 2 -11 -9
-15 -42 -12 -49 5 -4 11 0 14 17 11 12 -3 26 -5 30 -5z m1367 -30 c0 -15 -29
-21 -52 -10 -21 9 -21 9 4 4 15 -3 30 -1 33 5 8 12 15 13 15 1z m115 -11 c-7
-12 -75 -10 -75 2 0 4 18 8 41 8 25 0 38 -4 34 -10z m-1915 -5 c0 -4 -8 -20
-17 -38 -15 -28 -18 -29 -21 -12 -2 11 -9 23 -14 26 -17 11 1 29 28 29 13 0
24 -2 24 -5z m2080 -11 c0 -8 -5 -12 -10 -9 -6 4 -8 11 -5 16 9 14 15 11 15
-7z m-1870 2 c0 -11 -19 -15 -25 -6 -3 5 1 10 9 10 9 0 16 -2 16 -4z m1895 -6
c3 -5 1 -10 -4 -10 -6 0 -11 5 -11 10 0 6 2 10 4 10 3 0 8 -4 11 -10z m155
-10 c0 -5 -8 -10 -17 -10 -15 0 -16 2 -3 10 19 12 20 12 20 0z m-1413 -15 c20
-6 21 -9 7 -23 -13 -12 -20 -13 -34 -4 -13 8 -23 7 -39 -5 -26 -18 -44 -7 -18
11 9 7 17 18 17 23 0 11 33 10 67 -2z m161 -9 c3 -13 -1 -17 -14 -14 -11 2
-20 11 -22 22 -3 13 1 17 14 14 11 -2 20 -11 22 -22z m887 1 c7 -7 4 -8 -8 -4
-28 10 -98 -24 -95 -47 2 -11 -3 -21 -11 -24 -8 -3 -12 1 -9 9 10 26 -11 46
-54 54 l-43 8 68 8 c38 4 71 10 74 13 8 7 66 -5 78 -17z m-1341 -8 c-3 -5 -10
-7 -15 -3 -5 3 -7 10 -3 15 3 5 10 7 15 3 5 -3 7 -10 3 -15z m-92 -7 c9 -9 9
-12 1 -12 -7 0 -13 -10 -15 -22 -3 -21 -8 -23 -53 -21 -27 2 -44 0 -37 -3 25
-12 12 -34 -20 -35 -18 -1 -37 -1 -41 0 -4 1 -15 -5 -22 -13 -14 -14 -55 -11
-55 4 0 4 11 15 23 23 14 9 23 25 23 38 -1 18 7 25 36 33 20 6 39 14 43 18 11
10 105 2 117 -10z m48 8 c-8 -5 -19 -10 -25 -10 -5 0 -3 5 5 10 8 5 20 10 25
10 6 0 3 -5 -5 -10z m-300 -20 c0 -5 -4 -10 -10 -10 -5 0 -10 5 -10 10 0 6 5
10 10 10 6 0 10 -4 10 -10z m710 -52 c0 -4 -5 -8 -11 -8 -7 0 -9 -10 -5 -25 8
-30 -12 -34 -49 -9 -32 21 -36 74 -6 74 11 0 23 5 26 10 7 11 45 -25 45 -42z
m936 37 c-8 -8 -18 -15 -22 -15 -3 0 -1 7 6 15 7 8 17 15 22 15 5 0 3 -7 -6
-15z m-1074 -17 c-6 -6 -15 -8 -19 -4 -4 4 -1 11 7 16 8 5 17 7 19 4 3 -2 -1
-10 -7 -16z m1312 7 c-4 -8 -14 -15 -23 -15 -9 0 -22 -5 -29 -12 -9 -9 -16 -8
-29 5 -19 19 -14 21 39 17 14 -1 29 3 33 9 9 16 15 13 9 -4z m-1544 -26 c0 -5
-9 -9 -20 -9 -19 0 -27 20 -13 33 7 8 33 -11 33 -24z m725 20 c-4 -5 -17 -9
-29 -9 -13 0 -30 -7 -37 -16 -12 -14 -8 -21 26 -49 21 -18 44 -31 51 -28 18 7
24 -10 9 -30 -10 -14 -30 -18 -113 -20 -117 -2 -145 10 -102 44 14 11 36 30
50 42 14 12 32 25 40 29 12 5 10 8 -7 14 -51 15 -20 29 70 32 27 0 45 -3 42
-9z m-151 -21 c-3 -4 -16 -8 -30 -8 -13 0 -24 -4 -24 -10 0 -5 -3 -9 -7 -8 -5
1 -28 -4 -52 -11 -51 -15 -69 -5 -51 28 10 20 18 22 90 20 43 -2 77 -6 74 -11z
m340 -3 c-10 -8 -25 -15 -33 -15 -11 0 -9 4 5 15 10 8 25 15 33 15 11 0 9 -4
-5 -15z m-1285 -14 c11 -7 8 -13 -13 -26 -25 -16 -29 -17 -43 -3 -8 9 -12 21
-9 27 8 13 45 14 65 2z m1530 -20 c12 -11 21 -23 20 -28 -7 -22 -51 -43 -98
-45 -49 -2 -80 10 -51 20 8 3 26 18 40 33 14 14 35 29 45 32 11 2 20 5 21 6 1
0 11 -8 23 -18z m61 9 c0 -5 -4 -10 -9 -10 -6 0 -13 5 -16 10 -3 6 1 10 9 10
9 0 16 -4 16 -10z m-325 -10 c3 -5 -1 -10 -9 -10 -9 0 -16 5 -16 10 0 6 4 10
9 10 6 0 13 -4 16 -10z m-859 -86 c-6 -16 -32 -9 -40 11 -3 8 5 26 17 42 l22
28 3 -34 c2 -18 1 -39 -2 -47z m965 51 c9 -32 -1 -38 -22 -11 -23 30 -24 34
-1 32 9 0 20 -10 23 -21z m547 13 c-7 -19 -150 -46 -156 -30 -2 6 -10 12 -17
12 -8 0 -16 4 -20 10 -3 5 7 8 23 5 16 -1 44 0 63 5 55 13 111 12 107 -2z
m-1768 -8 c-20 -13 -33 -13 -25 0 3 6 14 10 23 10 15 0 15 -2 2 -10z m1138
-16 c35 -24 14 -49 -55 -63 -63 -12 -93 -1 -60 23 9 7 17 18 17 23 0 8 40 26
70 32 3 1 16 -6 28 -15z m-588 -25 c0 -5 1 -12 3 -16 2 -7 -84 -5 -92 2 -1 2
0 8 3 13 7 13 86 14 86 1z m-635 -9 c-3 -5 -16 -10 -29 -10 -12 0 -26 -3 -29
-7 -9 -9 22 -43 40 -43 7 0 13 -4 13 -10 0 -16 -45 -12 -94 10 -78 33 -54 69
47 70 36 0 56 -4 52 -10z m205 -10 c0 -5 -7 -10 -15 -10 -8 0 -15 5 -15 10 0
6 7 10 15 10 8 0 15 -4 15 -10z m515 0 c10 -16 -19 -50 -43 -50 -28 0 -72 -42
-72 -70 0 -25 -8 -25 -39 0 -27 24 -22 55 8 45 15 -4 20 -1 23 17 2 17 10 23
28 23 14 0 25 5 25 10 1 30 55 50 70 25z m30 -10 c3 -5 1 -10 -4 -10 -6 0 -11
5 -11 10 0 6 2 10 4 10 3 0 8 -4 11 -10z m803 4 c29 -8 29 -29 0 -31 -29 -3
-50 -31 -41 -57 3 -12 5 -28 4 -36 0 -8 -2 -22 -2 -31 0 -12 -23 -22 -82 -38
-45 -12 -86 -21 -92 -21 -18 0 44 50 67 54 13 3 24 5 26 5 1 1 4 1 7 1 3 0 20
7 38 17 l32 17 -33 9 c-23 7 -39 6 -56 -3 -16 -8 -29 -9 -41 -2 -10 5 -32 6
-53 1 -20 -4 -39 -6 -43 -3 -4 2 -10 0 -13 -5 -3 -5 -14 -7 -25 -4 -18 5 -28
-3 -56 -42 -16 -24 -30 -14 -22 17 9 35 29 57 59 62 14 2 36 10 49 16 12 7 47
14 78 16 35 2 60 9 67 19 10 14 75 43 99 44 6 0 20 -2 33 -5z m72 -7 c0 -7 -7
-22 -15 -32 -50 -67 -52 -68 -71 -61 -17 7 -16 11 18 41 20 18 34 36 31 39 -8
8 7 26 23 26 8 0 14 -6 14 -13z m-780 -25 c0 -5 -9 -17 -20 -27 -23 -21 -26
-14 -8 15 13 20 28 27 28 12z m265 -24 c15 -21 14 -23 -4 -26 -10 -2 -21 -11
-24 -22 -7 -26 -63 -37 -86 -16 -10 9 -32 16 -49 16 -22 0 -32 5 -32 15 0 11
9 15 30 13 17 -1 30 -6 30 -11 0 -4 5 -5 10 -2 6 4 8 10 5 15 -10 16 29 34 87
39 9 0 24 -9 33 -21z m-811 -20 c-4 -6 -24 -7 -48 -4 -30 5 -50 1 -77 -13 -37
-20 -64 -26 -106 -23 -32 3 -29 22 3 22 39 0 114 21 114 32 0 7 18 9 45 6 27
-3 45 -1 45 4 0 6 7 5 15 -2 8 -7 12 -17 9 -22z m1436 22 c0 -5 -7 -10 -16
-10 -8 0 -12 5 -9 10 3 6 10 10 16 10 5 0 9 -4 9 -10z m-525 -10 c-3 -5 -11
-10 -16 -10 -6 0 -7 5 -4 10 3 6 11 10 16 10 6 0 7 -4 4 -10z m-520 -10 c3 -5
1 -10 -4 -10 -6 0 -11 5 -11 10 0 6 2 10 4 10 3 0 8 -4 11 -10z m-347 -28 c2
-7 -5 -12 -17 -12 -14 0 -19 5 -14 15 6 17 25 15 31 -3z m542 9 c0 -5 -7 -11
-15 -15 -15 -5 -20 5 -8 17 9 10 23 9 23 -2z m-835 -42 c6 -6 -8 -3 -30 6 -22
9 -44 21 -50 27 -5 5 8 2 30 -7 22 -9 45 -21 50 -26z m429 35 c42 -16 -60 -80
-108 -68 -30 7 -30 28 0 30 53 2 55 4 49 24 -5 16 -2 20 19 20 13 0 31 -3 40
-6z m474 -47 c5 -24 -24 -67 -46 -67 -23 1 -62 34 -62 53 0 34 102 47 108 14z
m343 -20 c-8 -23 -41 -37 -41 -18 0 6 4 11 9 11 5 0 11 9 14 21 3 12 10 18 16
15 6 -4 7 -15 2 -29z m279 13 c-8 -5 -19 -10 -25 -10 -5 0 -3 5 5 10 8 5 20
10 25 10 6 0 3 -5 -5 -10z m-900 -18 c0 -13 -12 -22 -22 -16 -10 6 -1 24 13
24 5 0 9 -4 9 -8z m465 -52 c0 -11 -14 -16 -60 -18 -59 -2 -60 -2 -38 17 27
23 98 24 98 1z m-1354 -433 c-61 -61 -113 -108 -116 -105 -9 8 208 227 218
221 4 -3 -42 -55 -102 -116z m139 75 c0 -5 -30 -37 -67 -73 -79 -76 -81 -65
-3 20 52 58 70 71 70 53z m151 -155 c-8 -8 -11 -7 -11 4 0 20 13 34 18 19 3
-7 -1 -17 -7 -23z m-301 -2 c-7 -9 -15 -13 -18 -10 -3 2 1 11 8 20 7 9 15 13
18 10 3 -2 -1 -11 -8 -20z m342 -37 c-19 -19 -22 -20 -22 -5 0 9 7 17 15 17 8
0 15 5 15 12 0 6 3 8 7 4 4 -3 -3 -16 -15 -28z m-391 -11 c-10 -9 -11 -8 -5 6
3 10 9 15 12 12 3 -3 0 -11 -7 -18z m441 -19 c-7 -7 -12 -8 -12 -2 0 14 12 26
19 19 2 -3 -1 -11 -7 -17z m-476 -24 c-4 -9 -9 -15 -11 -12 -3 3 -3 13 1 22 4
9 9 15 11 12 3 -3 3 -13 -1 -22z m452 4 c-2 -6 -10 -14 -16 -16 -7 -2 -10 2
-6 12 7 18 28 22 22 4z m1292 -2 c0 -3 -4 -8 -10 -11 -5 -3 -10 -1 -10 4 0 6
5 11 10 11 6 0 10 -2 10 -4z m-1276 -41 c-4 -8 -8 -15 -10 -15 -2 0 -4 7 -4
15 0 8 4 15 10 15 5 0 7 -7 4 -15z m1246 5 c0 -6 -6 -13 -14 -16 -8 -3 -12
-12 -9 -20 3 -8 -1 -14 -11 -14 -20 0 -20 6 2 35 18 26 32 32 32 15z m-1280
-29 c0 -6 -4 -13 -10 -16 -5 -3 -10 1 -10 9 0 9 5 16 10 16 6 0 10 -4 10 -9z
m1158 -52 c-10 -6 -18 -17 -18 -24 0 -8 -4 -15 -10 -15 -5 0 -10 -9 -10 -19 0
-10 -7 -21 -15 -25 -8 -3 -15 -12 -15 -20 0 -7 -7 -16 -15 -20 -8 -3 -15 -12
-15 -21 0 -8 -7 -15 -15 -15 -17 0 -9 31 12 43 7 4 13 15 13 22 0 8 5 15 10
15 6 0 10 6 10 13 0 8 13 27 30 43 16 16 30 36 30 44 0 11 2 12 13 1 10 -10 9
-14 -5 -22z m-1138 6 c0 -8 -4 -15 -10 -15 -5 0 -7 7 -4 15 4 8 8 15 10 15 2
0 4 -7 4 -15z m30 -40 c0 -8 -4 -15 -10 -15 -5 0 -10 7 -10 15 0 8 5 15 10 15
6 0 10 -7 10 -15z m35 -29 c-10 -7 -15 -18 -11 -24 5 -8 2 -10 -8 -6 -9 3 -16
9 -16 12 0 10 45 47 49 39 1 -5 -5 -14 -14 -21z m975 20 c0 -8 -7 -17 -16 -20
-9 -4 -14 -9 -11 -13 9 -9 -52 -83 -68 -83 -11 0 -11 6 3 30 9 16 20 30 24 30
3 0 16 16 28 35 22 36 40 45 40 21z m-102 -37 c-9 -5 -15 -16 -12 -23 3 -8 -4
-19 -15 -26 -12 -6 -21 -16 -21 -23 0 -7 -8 -20 -17 -29 -27 -25 -43 -46 -43
-56 0 -5 -9 -19 -20 -32 -21 -24 -27 -50 -11 -50 5 0 12 9 16 19 3 11 12 22
20 25 8 3 15 12 15 20 0 9 9 20 20 26 11 6 20 17 20 25 0 8 6 15 14 15 11 0 8
-16 -16 -69 -26 -59 -34 -70 -60 -75 -19 -4 -37 -1 -46 6 -12 10 -16 10 -19 1
-3 -7 -16 -13 -29 -13 -35 0 -29 20 16 60 22 19 40 43 40 53 0 9 6 17 13 17 6
0 22 17 35 38 42 66 78 101 107 101 6 0 2 -4 -7 -10z m-788 -71 c0 -23 -3 -29
-11 -21 -6 6 -8 20 -4 32 9 30 15 26 15 -11z m290 -54 c0 -8 -4 -12 -10 -9 -5
3 -10 10 -10 16 0 5 5 9 10 9 6 0 10 -7 10 -16z m-100 -23 c0 -11 -4 -22 -9
-25 -11 -7 -20 14 -13 32 7 19 22 14 22 -7z m575 -75 c-15 -22 -35 -35 -35
-22 0 15 14 35 21 30 5 -3 12 2 15 11 4 9 9 14 11 11 3 -2 -3 -16 -12 -30z
m775 -115 c0 -6 -4 -13 -10 -16 -5 -3 -10 1 -10 9 0 9 5 16 10 16 6 0 10 -4
10 -9z m-30 -41 c0 -5 -5 -10 -11 -10 -5 0 -7 5 -4 10 3 6 8 10 11 10 2 0 4
-4 4 -10z m-1030 -26 c0 -16 -16 -19 -25 -4 -8 13 4 32 16 25 5 -4 9 -13 9
-21z"/>
<path d="M1630 1855 c-11 -13 -8 -15 14 -15 16 0 26 5 26 15 0 8 -6 15 -14 15
-7 0 -19 -7 -26 -15z"/>
<path d="M1715 1440 c-3 -5 1 -10 9 -10 9 0 16 5 16 10 0 6 -4 10 -9 10 -6 0
-13 -4 -16 -10z"/>
<path d="M945 2181 c-3 -5 2 -11 10 -15 8 -3 17 -1 20 3 3 5 -2 11 -10 15 -8
3 -17 1 -20 -3z"/>
<path d="M2173 2122 c15 -10 24 -22 20 -27 -5 -4 -3 -5 4 -2 17 11 45 -4 39
-20 -3 -8 -1 -11 4 -8 5 3 23 -1 41 -10 52 -27 43 -10 -15 29 -49 33 -97 56
-114 56 -4 0 5 -8 21 -18z"/>
<path d="M730 2099 c0 -5 -4 -8 -9 -5 -4 3 -16 0 -25 -7 -16 -12 -12 -15 34
-25 39 -9 56 -9 73 0 21 11 21 12 -10 20 -18 5 -33 13 -33 18 0 6 -7 10 -15
10 -8 0 -15 -5 -15 -11z"/>
<path d="M2347 2022 l21 -19 -35 -12 c-38 -14 -95 -8 -129 14 -14 9 -35 12
-58 8 -34 -5 -50 -22 -23 -24 58 -5 85 -10 102 -18 11 -5 46 -11 78 -14 46 -3
57 -1 53 10 -3 8 -2 12 2 9 11 -7 62 -16 62 -11 0 8 -55 56 -75 66 -18 9 -18
8 2 -9z"/>
<path d="M15 1960 c-18 -20 -18 -91 1 -97 6 -2 17 11 24 28 8 17 23 43 35 58
l22 26 -32 2 c-21 1 -39 -5 -50 -17z"/>
<path d="M700 1970 c-12 -8 -9 -10 13 -10 16 0 43 -11 61 -25 40 -30 51 -31
94 -5 17 11 32 15 32 9 0 -5 4 -8 10 -4 5 3 7 11 4 19 -6 16 -109 22 -119 6
-5 -8 -10 -8 -20 0 -19 16 -58 21 -75 10z"/>
<path d="M592 1955 c-11 -12 -10 -15 3 -15 8 0 15 7 15 15 0 18 -2 18 -18 0z"/>
<path d="M2135 1960 c-17 -7 -14 -9 13 -9 20 -1 31 3 27 9 -7 12 -13 12 -40 0z"/>
<path d="M643 1916 c4 -13 97 -9 111 4 5 5 -19 8 -53 8 -39 -1 -60 -5 -58 -12z"/>
<path d="M1005 1920 c-4 -6 2 -9 14 -7 29 4 39 17 13 17 -11 0 -24 -5 -27 -10z"/>
<path d="M2454 1898 c3 -10 1 -18 -4 -18 -6 0 -10 -6 -10 -14 0 -8 -8 -17 -17
-21 -16 -7 -14 -9 7 -15 14 -4 30 -5 37 -3 13 5 8 48 -8 72 -9 14 -10 14 -5
-1z"/>
<path d="M756 1891 c-4 -5 -2 -12 3 -15 5 -4 12 -2 15 3 4 5 2 12 -3 15 -5 4
-12 2 -15 -3z"/>
<path d="M630 1881 c0 -4 11 -6 25 -3 14 2 25 6 25 8 0 2 -11 4 -25 4 -14 0
-25 -4 -25 -9z"/>
<path d="M20 1798 c0 -9 5 -20 10 -23 13 -8 13 5 0 25 -8 13 -10 13 -10 -2z"/>
<path d="M30 1750 c0 -5 5 -10 11 -10 5 0 7 5 4 10 -3 6 -8 10 -11 10 -2 0 -4
-4 -4 -10z"/>
<path d="M61 1672 c8 -11 31 -41 51 -68 34 -47 124 -121 133 -112 3 2 -15 18
-39 35 -25 18 -68 61 -96 97 -29 36 -54 66 -57 66 -3 0 1 -8 8 -18z"/>
<path d="M1 1466 c-1 -85 2 -157 7 -159 4 -3 14 -2 22 3 8 5 21 5 31 0 29 -16
31 40 5 137 -25 91 -48 159 -58 168 -3 3 -6 -64 -7 -149z"/>
<path d="M115 1530 c10 -11 20 -20 23 -20 3 0 -3 9 -13 20 -10 11 -20 20 -23
20 -3 0 3 -9 13 -20z"/>
<path d="M141 1364 c0 -11 3 -14 6 -6 3 7 2 16 -1 19 -3 4 -6 -2 -5 -13z"/>
<path d="M121 1233 c-1 -44 15 -66 25 -38 4 9 0 31 -9 48 l-16 32 0 -42z"/>
<path d="M38 1210 c-12 -38 -10 -66 3 -53 6 6 9 26 7 44 -3 32 -3 33 -10 9z"/>
<path d="M81 1164 c0 -11 3 -14 6 -6 3 7 2 16 -1 19 -3 4 -6 -2 -5 -13z"/>
<path d="M171 1083 c0 -31 2 -34 9 -18 12 28 12 55 0 55 -5 0 -10 -17 -9 -37z"/>
<path d="M165 1020 c-3 -5 -1 -10 4 -10 6 0 11 5 11 10 0 6 -2 10 -4 10 -3 0
-8 -4 -11 -10z"/>
<path d="M235 1010 c-3 -5 -1 -10 4 -10 6 0 11 5 11 10 0 6 -2 10 -4 10 -3 0
-8 -4 -11 -10z"/>
<path d="M199 973 c-9 -10 -27 -28 -40 -39 -46 -41 -111 -116 -105 -122 6 -5
96 73 104 90 2 4 16 22 32 40 17 18 30 36 30 41 0 11 -4 9 -21 -10z"/>
<path d="M305 805 c-44 -47 -81 -89 -83 -94 -2 -5 6 -11 17 -14 21 -5 36 17
25 35 -4 6 1 8 14 4 15 -5 22 -2 27 14 3 11 13 20 21 20 8 0 14 9 14 20 0 11
7 20 15 20 14 0 19 12 16 33 0 4 8 7 20 7 14 0 19 5 17 17 -6 32 -24 21 -103
-62z"/>
<path d="M22 780 c-12 -12 -22 -26 -22 -32 0 -6 1 -9 3 -7 1 2 13 16 26 32 29
32 24 36 -7 7z"/>
<path d="M13 723 c-15 -5 -18 -53 -3 -53 14 0 33 41 23 50 -4 4 -14 5 -20 3z"/>
<path d="M2552 693 c-1 -13 -6 -23 -12 -23 -5 0 -10 -9 -10 -19 0 -11 -4 -23
-10 -26 -5 -3 -10 -15 -10 -26 0 -10 -4 -19 -9 -19 -5 0 -12 -21 -16 -47 -3
-27 -9 -59 -12 -73 -10 -46 13 -7 51 87 27 66 36 102 33 130 -2 21 -4 28 -5
16z"/>
<path d="M178 668 c-33 -38 -34 -44 -11 -52 20 -8 36 14 21 31 -8 10 -7 13 3
13 23 0 43 -16 30 -24 -16 -10 -14 -23 6 -30 22 -9 35 15 19 34 -8 8 -16 24
-17 34 -6 30 -22 28 -51 -6z"/>
<path d="M62 623 c-8 -15 -7 -22 9 -31 16 -10 21 -10 26 4 3 8 -1 22 -10 31
-14 14 -16 13 -25 -4z"/>
<path d="M282 628 c-19 -19 -14 -28 14 -28 18 0 25 5 22 17 -4 21 -21 26 -36
11z"/>
<path d="M180 591 c-8 -15 -5 -20 12 -24 13 -4 19 -11 15 -20 -3 -9 2 -17 14
-20 22 -6 27 21 5 29 -8 3 -12 13 -9 23 7 26 -24 35 -37 12z"/>
<path d="M27 570 c-4 -15 10 -30 28 -30 13 0 9 29 -5 38 -15 9 -19 7 -23 -8z"/>
<path d="M247 583 c-13 -12 -7 -23 13 -23 11 0 20 7 20 15 0 15 -21 21 -33 8z"/>
<path d="M307 576 c-7 -18 23 -30 37 -16 8 8 7 14 -4 20 -21 13 -27 12 -33 -4z"/>
<path d="M377 574 c-13 -13 -7 -24 14 -24 11 0 19 5 17 12 -5 14 -22 21 -31
12z"/>
<path d="M84 558 c-4 -5 0 -14 7 -19 20 -13 29 -11 29 5 0 18 -27 29 -36 14z"/>
<path d="M437 564 c-13 -13 -7 -24 14 -24 11 0 19 5 17 12 -5 14 -22 21 -31
12z"/>
<path d="M147 554 c-13 -13 -7 -24 14 -24 11 0 19 5 17 12 -5 14 -22 21 -31
12z"/>
<path d="M277 544 c-13 -13 -7 -24 14 -24 11 0 19 5 17 12 -5 14 -22 21 -31
12z"/>
<path d="M0 520 c0 -23 15 -27 23 -6 3 8 -1 17 -9 20 -9 4 -14 -1 -14 -14z"/>
<path d="M336 531 c-3 -5 0 -11 8 -14 15 -6 26 1 26 15 0 11 -27 10 -34 -1z"/>
<path d="M406 533 c-11 -11 -6 -23 8 -23 8 0 17 4 20 9 7 10 -19 23 -28 14z"/>
<path d="M55 520 c-7 -11 2 -30 15 -30 4 0 10 6 13 14 6 16 -19 30 -28 16z"/>
<path d="M467 523 c-12 -11 -8 -23 8 -23 8 0 15 7 15 15 0 16 -12 20 -23 8z"/>
<path d="M110 505 c0 -10 7 -15 18 -13 21 4 19 22 -2 26 -10 2 -16 -3 -16 -13z"/>
<path d="M176 504 c-4 -9 1 -14 14 -14 23 0 27 15 6 23 -8 3 -17 -1 -20 -9z"/>
<path d="M235 500 c-3 -5 -4 -10 -1 -10 2 0 11 -3 20 -6 11 -4 16 -1 16 10 0
18 -25 22 -35 6z"/>
<path d="M304 498 c-4 -5 -1 -14 7 -18 14 -9 29 -4 29 10 0 13 -29 20 -36 8z"/>
<path d="M2540 490 c0 -11 -4 -20 -10 -20 -5 0 -10 -9 -10 -20 0 -11 5 -20 10
-20 6 0 10 9 10 20 0 11 5 20 10 20 6 0 10 9 10 20 0 11 -4 20 -10 20 -5 0
-10 -9 -10 -20z"/>
<path d="M365 491 c-7 -12 12 -24 25 -16 11 7 4 25 -10 25 -5 0 -11 -4 -15 -9z"/>
<path d="M425 489 c-10 -15 1 -23 20 -15 9 3 13 10 10 16 -8 13 -22 13 -30 -1z"/>
<path d="M483 478 c2 -7 10 -13 17 -13 7 0 15 6 18 13 2 7 -5 12 -18 12 -13 0
-20 -5 -17 -12z"/>
<path d="M20 464 c0 -9 5 -14 12 -12 18 6 21 28 4 28 -9 0 -16 -7 -16 -16z"/>
<path d="M76 473 c-11 -11 -6 -23 9 -23 8 0 15 4 15 9 0 13 -16 22 -24 14z"/>
<path d="M142 459 c2 -6 8 -10 13 -10 5 0 11 4 13 10 2 6 -4 11 -13 11 -9 0
-15 -5 -13 -11z"/>
<path d="M200 461 c0 -16 28 -20 34 -5 4 9 -1 14 -14 14 -11 0 -20 -4 -20 -9z"/>
<path d="M266 463 c-12 -12 -5 -23 14 -23 11 0 20 4 20 9 0 11 -26 22 -34 14z"/>
<path d="M325 451 c-3 -5 -1 -12 5 -16 12 -7 30 2 30 16 0 12 -27 12 -35 0z"/>
<path d="M391 444 c-12 -14 -11 -16 4 -12 10 1 20 9 23 16 5 17 -10 15 -27 -4z"/>
<path d="M450 435 c0 -8 7 -15 15 -15 8 0 15 7 15 15 0 8 -7 15 -15 15 -8 0
-15 -7 -15 -15z"/>
<path d="M515 440 c-8 -13 4 -32 16 -25 12 8 12 35 0 35 -6 0 -13 -4 -16 -10z"/>
<path d="M570 426 c0 -21 21 -31 31 -15 14 22 11 29 -11 29 -11 0 -20 -6 -20
-14z"/>
<path d="M40 415 c0 -8 5 -15 10 -15 6 0 10 7 10 15 0 8 -4 15 -10 15 -5 0
-10 -7 -10 -15z"/>
<path d="M167 424 c-8 -8 1 -24 14 -24 5 0 9 7 9 15 0 15 -12 20 -23 9z"/>
<path d="M225 421 c-6 -11 20 -33 28 -24 4 3 7 10 7 14 0 11 -29 19 -35 10z"/>
<path d="M634 419 c-3 -6 0 -17 8 -25 13 -13 16 -13 28 1 12 14 11 18 -1 26
-19 12 -26 11 -35 -2z"/>
<path d="M2500 405 c0 -14 -3 -25 -8 -25 -8 0 -34 -55 -32 -66 1 -4 -5 -11
-14 -16 -9 -5 -16 -17 -16 -27 0 -11 -6 -21 -13 -24 -8 -3 -22 -21 -31 -41 -9
-20 -21 -36 -26 -36 -6 0 -10 -9 -10 -20 0 -11 -7 -20 -15 -20 -8 0 -15 -7
-15 -16 0 -9 -8 -23 -17 -30 -14 -10 -15 -15 -6 -25 10 -10 14 -8 19 7 4 10
13 23 21 27 7 4 13 15 13 22 0 8 4 15 9 15 5 0 26 26 47 57 22 32 45 64 52 71
6 7 12 20 12 28 0 8 5 14 10 14 6 0 10 9 10 20 0 11 5 20 10 20 6 0 10 11 10
25 0 14 5 25 10 25 16 0 12 27 -5 34 -11 4 -15 -1 -15 -19z"/>
<path d="M110 409 c0 -5 5 -7 10 -4 6 3 10 8 10 11 0 2 -4 4 -10 4 -5 0 -10
-5 -10 -11z"/>
<path d="M300 400 c0 -11 5 -20 10 -20 6 0 10 9 10 20 0 11 -4 20 -10 20 -5 0
-10 -9 -10 -20z"/>
<path d="M354 406 c-4 -10 -2 -22 4 -28 8 -8 13 -7 18 6 4 10 2 22 -4 28 -8 8
-13 7 -18 -6z"/>
<path d="M416 394 c-8 -22 -8 -24 8 -24 19 0 28 27 11 34 -7 2 -16 -2 -19 -10z"/>
<path d="M480 385 c0 -8 5 -15 10 -15 6 0 10 7 10 15 0 8 -4 15 -10 15 -5 0
-10 -7 -10 -15z"/>
<path d="M6 381 c-4 -7 -5 -15 -2 -18 9 -9 19 4 14 18 -4 11 -6 11 -12 0z"/>
<path d="M127 383 c-12 -11 -8 -23 8 -23 8 0 15 7 15 15 0 16 -12 20 -23 8z"/>
<path d="M542 374 c4 -21 22 -23 26 -1 2 10 -3 17 -13 17 -10 0 -15 -6 -13
-16z"/>
<path d="M65 370 c3 -5 8 -10 11 -10 2 0 4 5 4 10 0 6 -5 10 -11 10 -5 0 -7
-4 -4 -10z"/>
<path d="M192 364 c4 -21 22 -23 26 -1 2 10 -3 17 -13 17 -10 0 -15 -6 -13
-16z"/>
<path d="M610 353 c0 -26 15 -31 24 -7 9 24 7 31 -9 31 -9 0 -15 -10 -15 -24z"/>
<path d="M767 358 c-11 -40 14 -53 34 -17 9 17 8 23 -2 30 -21 13 -26 11 -32
-13z"/>
<path d="M260 350 c0 -24 15 -27 24 -4 9 22 8 24 -9 24 -8 0 -15 -9 -15 -20z"/>
<path d="M317 346 c-6 -14 0 -26 14 -26 3 0 9 9 12 20 6 23 -18 28 -26 6z"/>
<path d="M2545 348 c-3 -7 -7 -26 -9 -43 -2 -16 -6 -37 -8 -45 -31 -97 -45
-130 -74 -176 -56 -87 -57 -84 30 -84 l76 0 0 180 c0 166 -3 200 -15 168z"/>
<path d="M380 330 c0 -24 15 -27 24 -4 9 22 8 24 -9 24 -8 0 -15 -9 -15 -20z"/>
<path d="M443 334 c-3 -8 -1 -20 6 -27 8 -8 11 -8 11 0 0 6 3 18 6 27 3 9 1
16 -5 16 -7 0 -14 -7 -18 -16z"/>
<path d="M688 339 c-19 -11 -24 -34 -9 -44 11 -6 34 31 29 45 -2 5 -11 4 -20
-1z"/>
<path d="M20 330 c0 -5 5 -10 10 -10 6 0 10 5 10 10 0 6 -4 10 -10 10 -5 0
-10 -4 -10 -10z"/>
<path d="M90 325 c0 -8 4 -15 9 -15 5 0 11 7 15 15 3 9 0 15 -9 15 -8 0 -15
-7 -15 -15z"/>
<path d="M515 319 c-4 -11 -4 -23 0 -27 7 -7 25 17 25 36 0 20 -18 14 -25 -9z"/>
<path d="M160 310 c0 -11 4 -20 9 -20 5 0 11 9 14 20 3 13 0 20 -9 20 -8 0
-14 -9 -14 -20z"/>
<path d="M729 307 c-1 -12 -1 -25 0 -29 0 -5 -6 -8 -14 -8 -8 0 -15 -4 -15 -9
0 -5 -3 -16 -6 -25 -11 -30 11 -15 44 28 38 51 38 52 12 59 -15 4 -20 0 -21
-16z"/>
<path d="M233 313 c-14 -5 -18 -43 -5 -43 4 0 12 11 19 25 11 25 9 28 -14 18z"/>
<path d="M576 298 c-12 -46 3 -54 22 -13 15 33 15 35 -2 35 -7 0 -16 -10 -20
-22z"/>
<path d="M282 278 c2 -13 8 -23 13 -23 6 0 11 10 13 23 2 15 -2 22 -13 22 -11
0 -15 -7 -13 -22z"/>
<path d="M803 293 c-7 -3 -13 -15 -13 -28 0 -12 -7 -25 -15 -29 -8 -3 -15 -13
-15 -21 0 -9 -7 -23 -15 -31 -17 -18 -20 -34 -5 -34 6 0 10 5 10 10 0 11 33
60 63 94 25 29 19 50 -10 39z"/>
<path d="M57 283 c-12 -11 -8 -23 8 -23 8 0 15 7 15 15 0 16 -12 20 -23 8z"/>
<path d="M347 270 c-7 -27 9 -35 22 -11 14 26 14 31 -3 31 -7 0 -16 -9 -19
-20z"/>
<path d="M417 284 c-10 -11 -8 -54 2 -54 14 0 25 40 14 51 -5 5 -12 6 -16 3z"/>
<path d="M640 275 c-10 -12 -10 -19 -1 -28 9 -9 14 -9 21 3 22 34 4 54 -20 25z"/>
<path d="M138 273 c-10 -2 -18 -14 -18 -25 0 -25 21 -19 31 10 5 12 7 21 6 21
-1 -1 -10 -3 -19 -6z"/>
<path d="M480 245 c0 -14 5 -25 10 -25 6 0 10 4 10 9 0 5 3 16 6 25 4 11 1 16
-10 16 -10 0 -16 -9 -16 -25z"/>
<path d="M867 263 c-4 -3 -7 -16 -7 -27 1 -21 1 -21 15 -2 8 11 15 23 15 28 0
10 -14 11 -23 1z"/>
<path d="M187 240 c-3 -11 -1 -23 5 -26 11 -7 14 -5 22 24 5 16 3 22 -7 22 -8
0 -17 -9 -20 -20z"/>
<path d="M545 229 c-9 -29 4 -38 21 -15 18 25 18 36 0 36 -8 0 -18 -9 -21 -21z"/>
<path d="M927 230 c-3 -11 -1 -20 4 -20 5 0 9 2 9 4 0 2 3 11 6 20 3 9 2 16
-4 16 -5 0 -12 -9 -15 -20z"/>
<path d="M20 230 c-12 -7 -12 -12 -3 -21 10 -10 14 -9 19 5 4 9 5 19 2 21 -2
2 -10 0 -18 -5z"/>
<path d="M250 221 c0 -30 17 -34 22 -6 4 17 1 25 -8 25 -8 0 -14 -9 -14 -19z"/>
<path d="M317 211 c-5 -22 1 -33 14 -25 12 7 12 44 0 44 -5 0 -11 -9 -14 -19z"/>
<path d="M607 210 c-7 -27 9 -35 22 -11 14 26 14 31 -3 31 -7 0 -16 -9 -19
-20z"/>
<path d="M93 213 c-18 -7 -16 -33 2 -33 8 0 15 2 15 4 0 2 3 11 6 20 6 16 0
19 -23 9z"/>
<path d="M384 205 c-8 -21 6 -41 17 -24 12 19 11 39 -1 39 -6 0 -13 -7 -16
-15z"/>
<path d="M837 213 c-4 -3 -7 -13 -7 -22 1 -13 3 -13 11 2 11 19 8 33 -4 20z"/>
<path d="M677 203 c-10 -10 -8 -45 2 -39 11 7 21 46 12 46 -4 0 -11 -3 -14 -7z"/>
<path d="M154 185 c-8 -21 6 -41 17 -24 12 19 11 39 -1 39 -6 0 -13 -7 -16
-15z"/>
<path d="M450 180 c0 -11 2 -20 5 -20 2 0 9 9 15 20 9 16 8 20 -5 20 -8 0 -15
-9 -15 -20z"/>
<path d="M527 184 c-4 -4 -7 -14 -7 -23 0 -11 3 -12 11 -4 6 6 10 16 7 23 -2
6 -7 8 -11 4z"/>
<path d="M217 166 c-3 -8 0 -17 8 -19 7 -3 15 3 18 14 6 22 -18 27 -26 5z"/>
<path d="M46 154 c-5 -12 2 -24 15 -24 3 0 9 8 11 18 6 21 -18 26 -26 6z"/>
<path d="M586 155 c-3 -8 -1 -15 3 -15 5 0 11 7 15 15 3 8 1 15 -3 15 -5 0
-11 -7 -15 -15z"/>
<path d="M807 164 c-4 -4 -7 -17 -7 -28 1 -19 1 -20 11 -3 11 19 8 43 -4 31z"/>
<path d="M280 150 c0 -5 4 -10 9 -10 6 0 13 5 16 10 3 6 -1 10 -9 10 -9 0 -16
-4 -16 -10z"/>
<path d="M356 151 c-4 -7 -5 -15 -2 -18 9 -9 19 4 14 18 -4 11 -6 11 -12 0z"/>
<path d="M427 143 c-4 -3 -7 -13 -7 -22 1 -13 3 -13 11 2 11 19 8 33 -4 20z"/>
<path d="M646 135 c-3 -8 -1 -15 4 -15 6 0 10 7 10 15 0 8 -2 15 -4 15 -2 0
-6 -7 -10 -15z"/>
<path d="M120 130 c0 -5 5 -10 10 -10 6 0 10 5 10 10 0 6 -4 10 -10 10 -5 0
-10 -4 -10 -10z"/>
<path d="M186 121 c-4 -5 -2 -12 3 -15 5 -4 12 -2 15 3 4 5 2 12 -3 15 -5 4
-12 2 -15 -3z"/>
<path d="M490 108 c0 -19 2 -20 10 -8 13 19 13 30 0 30 -5 0 -10 -10 -10 -22z"/>
<path d="M710 120 c0 -5 5 -10 10 -10 6 0 10 5 10 10 0 6 -4 10 -10 10 -5 0
-10 -4 -10 -10z"/>
<path d="M10 95 c0 -19 16 -19 24 0 3 9 0 15 -9 15 -8 0 -15 -7 -15 -15z"/>
<path d="M555 100 c-3 -5 -1 -10 4 -10 6 0 11 5 11 10 0 6 -2 10 -4 10 -3 0
-8 -4 -11 -10z"/>
<path d="M1063 103 c-7 -2 -13 -12 -13 -21 0 -8 -7 -23 -15 -32 -15 -17 -11
-50 6 -50 5 0 14 10 19 23 6 12 19 37 30 55 18 29 18 32 2 31 -9 0 -23 -3 -29
-6z"/>
<path d="M86 91 c-4 -7 -5 -15 -2 -18 9 -9 19 4 14 18 -4 11 -6 11 -12 0z"/>
<path d="M396 83 c-6 -14 -5 -15 5 -6 7 7 10 15 7 18 -3 3 -9 -2 -12 -12z"/>
<path d="M155 70 c-3 -5 -1 -10 4 -10 6 0 11 5 11 10 0 6 -2 10 -4 10 -3 0 -8
-4 -11 -10z"/>
<path d="M977 73 c-23 -6 -42 -52 -28 -66 13 -13 41 9 41 32 0 9 5 22 12 29
12 12 7 13 -25 5z"/>
<path d="M878 39 c-23 -13 -23 -39 -2 -39 16 0 43 27 44 43 0 10 -22 8 -42 -4z"/>
<path d="M2265 39 c-4 -6 -5 -13 -2 -16 7 -7 27 6 27 18 0 12 -17 12 -25 -2z"/>
<path d="M810 20 c0 -5 5 -10 10 -10 6 0 10 5 10 10 0 6 -4 10 -10 10 -5 0
-10 -4 -10 -10z"/>
</g>
</svg>
