<?xml version="1.0" standalone="no"?>
<!DOCTYPE svg PUBLIC "-//W3C//DTD SVG 20010904//EN"
 "http://www.w3.org/TR/2001/REC-SVG-20010904/DTD/svg10.dtd">
<svg version="1.0" xmlns="http://www.w3.org/2000/svg"
 width="256.000000pt" height="256.000000pt" viewBox="0 0 256.000000 256.000000"
 preserveAspectRatio="xMidYMid meet">
<metadata>
Created by potrace 1.11, written by Peter Selinger 2001-2013
</metadata>
<g transform="translate(0.000000,256.000000) scale(0.100000,-0.100000)"
fill="#000000" stroke="none">
<path d="M1667 2423 l-308 -3 -11 -25 c-6 -14 -8 -28 -4 -32 3 -4 270 -9 591
-11 l585 -4 0 41 0 41 -272 -2 c-150 -2 -412 -4 -581 -5z"/>
<path d="M1257 2402 c-25 -27 -21 -39 13 -44 37 -6 49 2 52 32 2 20 -2 26 -23
28 -15 2 -32 -5 -42 -16z"/>
<path d="M1133 2394 c-7 -19 12 -34 44 -34 34 0 53 11 53 31 0 16 -8 19 -45
19 -33 0 -47 -5 -52 -16z"/>
<path d="M1873 2290 c-276 -3 -505 -8 -508 -12 -4 -4 -5 -19 -1 -33 l6 -25
289 0 c158 0 417 -3 575 -7 l287 -6 -3 43 -3 42 -70 2 c-38 0 -296 -1 -572 -4z"/>
<path d="M1263 2283 c-25 -5 -28 -15 -13 -44 16 -28 100 -28 100 0 0 11 -10
27 -22 35 -23 16 -26 17 -65 9z"/>
<path d="M1141 2271 c-24 -15 -4 -38 36 -43 21 -3 43 -3 50 -1 13 5 6 34 -11
45 -15 10 -58 10 -75 -1z"/>
<path d="M1422 2170 c0 -14 2 -19 5 -12 2 6 2 18 0 25 -3 6 -5 1 -5 -13z"/>
<path d="M1263 2135 c0 -22 2 -30 4 -17 2 12 2 30 0 40 -3 9 -5 -1 -4 -23z"/>
<path d="M1263 1805 c0 -27 2 -38 4 -22 2 15 2 37 0 50 -2 12 -4 0 -4 -28z"/>
<path d="M1415 1767 c0 -45 -3 -99 -6 -120 -4 -21 0 -66 7 -100 14 -67 8 -259
-7 -235 -5 7 -9 34 -9 60 0 26 -4 49 -8 52 -5 3 -4 28 2 55 9 45 5 73 -9 59
-12 -12 -26 -127 -21 -168 7 -47 -11 -150 -26 -150 -10 0 -10 22 1 79 7 34 5
55 -10 95 l-19 51 3 -72 c2 -66 1 -70 -13 -50 -11 16 -15 50 -16 127 -1 100
-19 200 -36 200 -13 0 -9 -34 8 -81 13 -37 13 -54 3 -107 -6 -35 -9 -82 -6
-105 5 -36 4 -40 -7 -24 -8 9 -16 35 -20 57 -6 40 -7 40 -50 40 -61 0 -304
-27 -401 -44 -266 -47 -458 -132 -520 -229 -17 -27 -17 -28 4 -48 53 -49 240
-122 357 -139 66 -9 274 -11 274 -2 0 2 -5 12 -10 23 -13 23 -1 25 26 4 10 -8
31 -15 45 -15 15 0 30 -7 33 -16 5 -13 15 -15 54 -9 65 10 74 19 27 26 -35 5
-33 6 22 8 34 0 63 -4 65 -9 4 -12 49 -15 93 -5 22 4 19 2 -10 -9 -22 -9 -57
-16 -77 -16 -21 0 -38 -4 -38 -10 0 -5 7 -10 15 -10 8 0 12 -6 9 -14 -9 -23
129 -31 286 -17 123 10 172 17 380 50 62 10 213 52 255 71 11 5 45 20 75 33
30 14 63 34 74 46 18 20 18 21 -8 55 -53 71 -206 150 -371 194 -96 26 -296 62
-340 62 -40 0 -46 6 -34 37 7 19 4 40 -12 86 -16 46 -21 79 -19 136 4 106 2
163 -7 172 -5 5 -8 -29 -8 -74z m-170 -518 c-2 -36 -15 -70 -15 -41 0 18 -57
14 -128 -7 -60 -19 -132 -58 -132 -73 0 -9 90 -38 121 -38 14 0 32 6 39 14 6
8 21 16 32 18 32 5 32 23 1 37 -25 12 -26 14 -9 20 21 8 96 -9 96 -21 0 -5
-12 -13 -27 -19 -28 -10 -73 -53 -73 -70 0 -5 -9 -9 -20 -9 -30 0 -102 -41
-108 -62 -4 -16 -7 -16 -33 6 -17 14 -47 27 -72 30 -105 13 -108 13 -103 0 9
-23 -11 -25 -64 -8 -60 20 -71 47 -12 33 59 -14 63 -12 52 16 -11 29 -9 30 45
10 22 -8 56 -14 76 -15 20 0 42 -7 49 -15 13 -16 90 -21 90 -6 0 5 -14 14 -30
21 -17 7 -37 22 -44 32 -8 11 -38 26 -68 34 -49 12 -50 13 -13 10 29 -3 48 2
64 15 24 20 23 21 -33 34 -46 10 -19 20 54 20 65 0 104 14 86 32 -21 21 -194
-6 -180 -28 9 -16 -73 -10 -86 6 -8 9 -31 15 -59 16 l-46 1 44 15 c33 12 52
13 76 5 24 -7 48 -6 86 4 61 16 140 18 184 5 20 -5 52 -4 90 5 33 7 63 13 67
13 3 1 5 -17 3 -40z m60 4 l-7 -28 -13 25 c-12 22 -11 26 3 31 23 9 26 5 17
-28z m275 13 c42 -11 65 -12 95 -4 32 8 47 7 75 -6 l35 -16 -37 4 c-26 3 -43
-1 -59 -15 -22 -19 -79 -27 -79 -11 0 14 -43 30 -103 37 -32 4 -57 11 -57 16
0 14 69 11 130 -5z m-160 0 c0 -3 -4 -17 -10 -31 -12 -31 -30 -24 -30 11 0 17
5 24 20 24 11 0 20 -2 20 -4z m149 -55 c12 -8 8 -11 -15 -16 -59 -13 -61 -15
-31 -33 28 -17 35 -32 15 -32 -19 0 -88 51 -88 66 0 8 16 14 43 17 23 2 47 4
52 5 6 1 17 -2 24 -7z m-863 -71 c18 0 45 5 60 10 15 6 34 8 43 5 21 -8 -22
-30 -78 -39 -44 -7 -73 5 -79 34 -3 12 -1 13 9 3 7 -7 28 -13 45 -13z m907 3
c-7 -2 -21 -2 -30 0 -10 3 -4 5 12 5 17 0 24 -2 18 -5z m175 -3 c33 0 43 -14
17 -24 -19 -7 -70 3 -110 21 -30 13 -30 14 15 8 25 -3 60 -5 78 -5z m-415
-101 c2 -26 -2 -34 -17 -37 -18 -4 -18 -3 -4 12 18 17 14 49 -8 67 -8 6 -14
16 -14 22 0 28 42 -34 43 -64z m127 56 c-12 -14 -70 -35 -99 -35 -24 0 0 17
44 33 56 20 71 21 55 2z m190 -18 c0 -8 -11 -19 -25 -25 -30 -14 -125 -16
-125 -3 0 12 26 21 63 21 18 0 39 5 47 10 21 14 40 12 40 -3z m-472 -42 c18
-15 37 -23 46 -19 12 5 15 2 10 -9 -4 -12 -11 -14 -30 -7 -34 13 -74 41 -74
51 0 16 18 10 48 -16z m562 15 c0 -13 -78 -33 -93 -23 -7 4 6 12 33 19 58 16
60 16 60 4z m-273 -22 c-21 -7 -32 -7 -40 1 -8 8 0 11 29 10 39 -1 39 -1 11
-11z m87 -52 c-3 -9 -16 -16 -28 -16 -12 0 -27 -5 -34 -12 -9 -9 -12 -9 -12 0
0 10 71 54 78 47 1 -1 0 -10 -4 -19z m-137 -52 c-3 -3 -12 -4 -19 -1 -8 3 -5
6 6 6 11 1 17 -2 13 -5z"/>
<path d="M1240 1688 c0 -23 3 -29 9 -19 8 12 4 51 -5 51 -2 0 -4 -15 -4 -32z"/>
<path d="M1363 1665 c0 -33 2 -45 4 -27 2 18 2 45 0 60 -2 15 -4 0 -4 -33z"/>
<path d="M1313 1615 c0 -22 2 -30 4 -17 2 12 2 30 0 40 -3 9 -5 -1 -4 -23z"/>
<path d="M1322 1470 c0 -14 2 -19 5 -12 2 6 2 18 0 25 -3 6 -5 1 -5 -13z"/>
<path d="M310 1380 c13 -23 20 -26 20 -6 0 8 -7 16 -15 20 -13 4 -14 2 -5 -14z"/>
<path d="M260 1335 c0 -9 6 -12 15 -9 8 4 15 1 15 -7 0 -7 3 -9 6 -6 8 8 -14
37 -27 37 -5 0 -9 -7 -9 -15z"/>
<path d="M305 1270 c3 -5 8 -10 11 -10 2 0 4 5 4 10 0 6 -5 10 -11 10 -5 0 -7
-4 -4 -10z"/>
<path d="M2246 1030 c-118 -64 -229 -101 -481 -159 -28 -7 -84 -16 -125 -21
-41 -6 -86 -11 -100 -13 -14 -2 -44 -5 -67 -5 -35 -2 -41 -5 -36 -19 5 -12 2
-15 -9 -11 -12 5 -15 0 -14 -23 1 -25 5 -30 36 -35 66 -11 55 -12 -87 -13 -78
-1 -148 -4 -157 -7 -12 -5 -16 -21 -16 -73 l0 -67 -32 1 c-18 1 -59 2 -90 3
l-58 2 0 40 0 40 43 -1 c38 -1 39 -2 12 -8 -20 -4 -31 -13 -33 -27 -4 -25 19
-34 91 -34 l47 0 0 49 c0 83 3 81 -127 81 l-115 0 7 -82 c4 -46 10 -86 14 -90
11 -12 133 -28 226 -29 78 -1 84 -3 45 -10 -25 -4 -69 -8 -97 -8 -30 -1 -53
-6 -53 -12 0 -5 5 -7 10 -4 6 3 10 1 10 -4 0 -6 -12 -11 -28 -11 -17 0 -34 -9
-46 -25 -13 -17 -25 -23 -37 -20 -9 3 -20 1 -24 -5 -3 -6 -10 -8 -14 -5 -5 2
-19 -5 -33 -18 -14 -13 -36 -22 -56 -22 -32 1 -43 -9 -20 -18 7 -3 -3 -6 -23
-6 -23 -1 -39 -7 -43 -16 -3 -8 -1 -16 4 -16 6 -1 13 -2 18 -3 4 0 22 -11 40
-24 19 -14 32 -18 32 -11 0 6 9 0 20 -14 12 -14 27 -24 34 -21 8 3 17 0 21 -5
3 -6 10 -9 15 -6 5 3 20 0 32 -6 35 -20 171 -36 298 -37 298 -3 589 100 787
280 58 52 120 128 106 128 -5 0 -1 6 8 13 22 17 51 76 45 92 -3 8 -2 15 2 17
18 8 102 109 98 117 -3 5 1 25 9 45 14 33 14 35 -2 30 -16 -5 -16 -4 -2 8 18
15 39 51 39 68 0 7 -15 2 -36 -11 l-36 -22 15 29 c13 27 31 85 25 83 -2 0 -43
-22 -92 -49z m-508 -267 c-10 -2 -28 -2 -40 0 -13 2 -5 4 17 4 22 1 32 -1 23
-4z m-100 -10 c-16 -2 -40 -2 -55 0 -16 2 -3 4 27 4 30 0 43 -2 28 -4z m149
-40 c-3 -10 -5 -4 -5 12 0 17 2 24 5 18 2 -7 2 -21 0 -30z m280 5 c-3 -8 -6
-5 -6 6 -1 11 2 17 5 13 3 -3 4 -12 1 -19z m-526 -83 l-8 -80 -2 65 c0 36 2
76 6 90 11 42 13 9 4 -75z m159 51 c0 -2 -16 -6 -35 -8 -19 -2 -35 0 -35 4 0
4 16 8 35 8 19 0 35 -2 35 -4z m-244 -32 c-3 -9 -6 -24 -6 -35 0 -10 -4 -19
-9 -19 -6 0 -6 12 -1 30 l9 30 -75 0 -74 0 -1 -32 c-1 -18 -5 -44 -9 -58 -6
-19 -8 -9 -9 38 l-1 62 91 0 c79 0 90 -2 85 -16z m247 -31 c-7 -2 -19 -2 -25
0 -7 3 -2 5 12 5 14 0 19 -2 13 -5z m-360 -100 c-7 -2 -19 -2 -25 0 -7 3 -2 5
12 5 14 0 19 -2 13 -5z"/>
<path d="M110 1001 c0 -5 11 -23 24 -39 16 -18 23 -36 20 -49 -7 -26 23 -53
37 -32 7 12 9 12 9 -1 0 -8 3 -26 7 -40 6 -25 6 -25 -15 -6 -44 38 -34 6 12
-41 46 -46 47 -47 54 -23 6 25 6 24 12 -5 4 -23 16 -36 55 -57 60 -33 75 -35
75 -8 0 18 -14 83 -29 137 -4 14 -35 36 -93 66 -83 42 -87 43 -91 23 -4 -18
-4 -17 -6 5 -1 33 -71 102 -71 70z m172 -146 c36 -20 47 -33 57 -66 15 -49 10
-57 -21 -35 -12 9 -17 16 -10 16 24 0 13 45 -15 58 -37 16 -41 16 -45 -10 -3
-14 -6 -7 -9 20 -2 23 -4 42 -3 42 1 0 22 -11 46 -25z"/>
<path d="M910 915 c97 -18 168 -19 152 -3 -7 7 -54 12 -119 14 l-108 3 75 -14z"/>
<path d="M399 835 c-4 -3 -3 -23 1 -43 4 -20 11 -54 14 -74 9 -49 25 -63 94
-83 69 -21 161 -45 168 -45 3 0 2 29 -1 65 -8 75 -13 72 95 52 l65 -12 3 -41
3 -40 -36 4 c-19 2 -35 8 -35 12 0 5 8 6 19 3 22 -5 34 9 25 30 -5 14 -99 39
-109 29 -7 -7 -6 -61 1 -88 6 -23 66 -40 159 -46 l50 -3 -3 75 c-4 96 -9 110
-35 110 -21 0 -90 12 -205 35 -37 7 -65 8 -68 3 -3 -5 -3 -36 1 -70 8 -68 17
-63 -75 -36 -57 17 -64 23 -72 63 -5 21 -7 39 -6 40 8 6 68 -17 68 -26 0 -6
-9 -9 -20 -6 -15 4 -20 0 -20 -14 0 -21 20 -33 69 -44 l34 -7 -6 53 c-4 29
-10 56 -15 61 -5 5 -33 16 -63 24 -83 24 -94 26 -100 19z"/>
<path d="M980 450 c0 -5 5 -10 11 -10 5 0 7 5 4 10 -3 6 -8 10 -11 10 -2 0 -4
-4 -4 -10z"/>
</g>
</svg>
